# xmcd CD database file
#
# Track frame offsets:
#	150
#	18944
#	48360
#	70218
#	107921
#	121128
#	161133
#	181171
#	211814
#	230014
#	250782
#
# Disc length: 4092 seconds
#
# Revision: 12
# Processed by: cddbd v1.5.2PL0 Copyright (c) Steve Scherf et al.
# Submitted via: CDex 1.51
#
DISCID=8f0ffa0b
DTITLE=Esbjörn Svensson Trio - Tuesday Wonderland
DYEAR=2006
DGENRE=Jazz
TTITLE0=Fading Maid Preludium
TTITLE1=Tuesday Wonderland
TTITLE2=The Goldhearted Miner
TTITLE3=Brewery Of Beggars
TTITLE4=Beggar's Blanket
TTITLE5=Dolores In A Shoestand
TTITLE6=Where We Used To Live
TTITLE7=Eighthundred Streets By Feet
TTITLE8=Goldwrap
TTITLE9=Sipping On The Solid Ground
TTITLE10=Fading Maid Postludium
EXTD=YEAR: 2006
EXTT0=
EXTT1=
EXTT2=
EXTT3=
EXTT4=
EXTT5=
EXTT6=
EXTT7=
EXTT8=
EXTT9=
EXTT10=
PLAYORDER=
